{"title":"Head above Water 1996 DVDrip Englisch Klam","uid":6751081,"size":1577323184,"categoryP":"video","categoryS":"movies","magnet":"?xt=urn:btih:4ad91703a063d3a3c86561ca1a231ce0a5bdedd2&amp;dn=Head+above+Water+1996+DVDrip+Englisch+Klam&amp;tr=udp%3A%2F%2Ftracker.openbittorrent.com%3A80&amp;tr=udp%3A%2F%2Fopen.demonii.com%3A1337&amp;tr=udp%3A%2F%2Ftracker.coppersurfer.tk%3A6969&amp;tr=udp%3A%2F%2Fexodus.desync.com%3A6969","seeders":0,"leechers":1,"uploader":"Klambake","files":-1,"time":1318876965,"description":"With: Harvey Keitel, Cameron Diaz and Craig Sheffer\n\nHet is hartje zomer. De rechter George (Harvey Keitel) is met zijn neurotische vrouw Nathalie (Cameron Diaz) neergestreken op een paradijselijk eiland in de buurt van Maine. Wanneer George een nacht gaat vissen verschijnt Kent, de ex-minnaar van Nathalie, onverwachts ten tonele. Kent overlijdt die nacht en George wil van het lijk af.\n\nA prominent judge, his wife, her ex-lover, their neighbor and a dead body that complicates their lives. \n\n------------------ Dutch Friends ------------------\nYou can find my Friends at: http://www.Film-Test.nl \n------ They got my dutch subs ----- and more ------\n\nGeneral:\n\nComplete name                    : Head Above Water\\Head Above Water.avi\nFormat                           : AVI\nFormat/Info                      : Audio Video Interleave\nFile size                        : 1.47 GiB\nDuration                         : 1h 28mn\nOverall bit rate                 : 2 385 Kbps\n\nVideo:\n\nFormat                           : MPEG-4 Visual\nFormat profile                   : Simple@L3\nFormat settings, BVOP            : No\nFormat settings, QPel            : No\nFormat settings, GMC             : No warppoints\nFormat settings, Matrix          : Default (H.263)\nCodec ID                         : XVID\nCodec ID/Hint                    : XviD\nDuration                         : 1h 28mn\nBit rate                         : 1 926 Kbps\nWidth                            : 652 pixels\nHeight                           : 352 pixels\nDisplay aspect ratio             : 1.852\nFrame rate                       : 25.000 fps\nColor space                      : YUV\nChroma subsampling               : 4:2:0\nBit depth                        : 8 bits\nScan type                        : Progressive\nCompression mode                 : Lossy\nBits/(Pixel*Frame)               : 0.336\nStream size                      : 1.19 GiB (81%)\nWriting library                  : XviD 1.1.2 (UTC 2006-11-01)\n\nAudio:\n\nFormat                           : AC-3\nFormat/Info                      : Audio Coding 3\nMode extension                   : CM (complete main)\nCodec ID                         : 2000\nDuration                         : 1h 28mn\nBit rate mode                    : Constant\nBit rate                         : 448 Kbps\nChannel(s)                       : 6 channels\nChannel positions                : Front: L C R, Side: L R, LFE\nSampling rate                    : 48.0 KHz\nBit depth                        : 16 bits\nCompression mode                 : Lossy\nStream size                      : 282 MiB (19%)\nAlignment                        : Aligned on interleaves\nInterleave, duration             : 32 ms (0.80 video frame)\nInterleave, preload duration     : 32 ms\n\n","torrent":{"xt":"urn:btih:4ad91703a063d3a3c86561ca1a231ce0a5bdedd2","amp;dn":"Head+above+Water+1996+DVDrip+Englisch+Klam","amp;tr":["udp%3A%2F%2Ftracker.openbittorrent.com%3A80","udp%3A%2F%2Fopen.demonii.com%3A1337","udp%3A%2F%2Ftracker.coppersurfer.tk%3A6969","udp%3A%2F%2Fexodus.desync.com%3A6969"],"infoHash":"4ad91703a063d3a3c86561ca1a231ce0a5bdedd2","infoHashBuffer":{"type":"Buffer","data":[74,217,23,3,160,99,211,163,200,101,97,202,26,35,28,224,165,189,237,210]},"announce":[],"urlList":[]}}